PathFileType	4	(X/Y/Z)	C:/Users/beibeiliu/ov580/test_trc\sequence.14_training_dense_left.trc
DataRate	CameraRate	NumFrames	NumMarkers	Units	OrigDataRate	OrigDataStartFrame	OrigNumFrames
120	120	13	19	mm	120	96	383
Frame#	Time	ThumbCMC			ThumbMCP			ThumbIP			ThumbTip			IndexMCP			IndexPIP			IndexTip			MiddleMCP			MiddlePIP			MiddleTip			RingMCP			RingPIP			RingTip			PinkyMCP			PinkyPIP			PinkyTip			BackHand1			BackHand2			BackHand3	
		X0	Y0	Z0	X1	Y1	Z1	X2	Y2	Z2	X3	Y3	Z3	X4	Y4	Z4	X5	Y5	Z5	X6	Y6	Z6	X7	Y7	Z7	X8	Y8	Z8	X9	Y9	Z9	X10	Y10	Z10	X11	Y11	Z11	X12	Y12	Z12	X13	Y13	Z13	X14	Y14	Z14	X15	Y15	Z15	X16	Y16	Z16	X17	Y17	Z17	X18	Y18	Z18	
95	0.791667	-166.629	12.8687	-4.55635	-159.282	-19.4938	3.16165	-164.866	-44.5558	-5.90377	-176.64	-64.5748	-6.58295	-159.541	-35.8019	-44.9454	-166.773	-47.3077	-21.5298	-172.828	-18.797	-11.4768	-180.827	-41.4536	-49.9831	-177.886	-57.8986	-27.7821	-184.654	-31.3334	-5.03536	-199.683	-41.5141	-40.3761	-194.553	-49.1443	-18.0299	-192.506	-26.9805	-0.875306	-216.005	-33.1868	-31.3791	-204.236	-32.3077	-4.93514	-195.429	-9.53108	-2.43671	-206.303	9.49716	-43.5317	-208.069	31.5057	-23.7292	-178.767	25.9773	-33.2643	
96	0.8	-166.356	14.1738	-1.69304	-158.519	-17.0381	4.91309	-156.798	-45.0499	3.1794	-171.78	-62.2489	-1.30994	-153.805	-31.3488	-39.0327	-154.615	-44.816	-13.7907	-168.25	-17.1161	-4.71636	-174.88	-39.0701	-42.5585	-172.979	-55.9061	-16.9164	-178.882	-31.2976	1.1913	-189.188	-43.3481	-33.4717	-184.963	-46.1778	-6.55184	-188.961	-21.0154	2.69437	-205.571	-38.4528	-21.915	-198.028	-31.0295	0.163571	-197.555	-7.27073	3.00776	-206.295	4.6376	-39.5097	-213.145	27.2988	-26.4854	-181.192	25.761	-27.788	
97	0.808333	-168.18	17.6461	1.72681	-155.967	-12.0717	11.6872	-155.283	-35.4906	9.55258	-165.715	-61.449	4.75787	-147.124	-25.4963	-34.9657	-148.083	-41.0057	-7.19078	-162.624	-14.7989	1.6068	-169.043	-39.6847	-36.2499	-163.898	-51.6487	-7.99709	-172.6	-24.9866	5.6392	-182.929	-43.3195	-26.2844	-182.339	-43.2077	0.693917	-187.94	-15.6732	5.17654	-200.057	-39.209	-16.5381	-192.39	-28.4162	5.76622	-194.869	-2.71097	5.6569	-201.133	3.37123	-37.4203	-215.253	25.4725	-20.8538	-183.539	22.3441	-28.6704	
98	0.816667	-166.512	22.7535	5.1751	-152.051	-6.55106	18.2613	-147.967	-33.9811	13.9524	-158.435	-54.2535	9.54694	-144.787	-22.5748	-30.7027	-142.221	-37.123	-4.4141	-158.025	-16.5439	8.30504	-160.852	-37.1999	-30.3832	-155.561	-48.0981	-4.94884	-171.476	-18.5553	7.60334	-178.033	-42.4578	-20.2889	-177.842	-40.4049	4.73451	-184.33	-13.3733	6.68624	-194.49	-38.284	-12.6616	-188.809	-26.6432	8.35796	-194.021	-0.170478	7.60336	-200.256	-0.22947	-34.6609	-216.711	22.098	-20.3328	-184.135	26.6726	-23.3083	
99	0.825	-169.515	21.9092	3.35821	-151.593	-3.09044	17.5706	-143.344	-24.5541	19.9897	-148.668	-48.9926	17.4715	-139.437	-21.0581	-26.4401	-134.982	-34.541	-3.85897	-154.658	-15.0443	12.9116	-155.74	-34.3026	-26.2898	-151.757	-40.8764	3.48604	-168.842	-12.8193	9.01302	-171.99	-42.4213	-14.567	-170.24	-34.4018	9.04191	-180.892	-8.82984	6.47892	-188.413	-37.8902	-12.4314	-185.769	-27.8868	10.7645	-190.859	-3.62491	8.87167	-200.739	-2.16018	-34.3617	-214.211	17.863	-22.7018	-188.218	25.9689	-26.0598	
100	0.833333	-174.405	27.3025	5.48617	-150.155	3.37727	20.5208	-140.509	-16.207	23.2854	-137.807	-41.907	23.8554	-135.539	-14.5433	-24.1243	-130.185	-29.3573	-1.79814	-152.941	-12.9276	16.0106	-147.913	-34.9965	-20.1789	-147.046	-37.6673	7.03184	-164.846	-8.71384	10.2056	-165.536	-39.0286	-15.1559	-163.967	-33.2215	10.7051	-180.508	-7.63822	8.42678	-185.1	-40.9572	-6.97169	-180.351	-27.1779	12.6739	-188.904	-2.90712	11.1641	-196.79	-5.5519	-34.2513	-214.738	17.2213	-22.1744	-184.979	24.338	-25.2315	
101	0.841667	-170.783	26.118	1.8932	-154.204	7.38347	18.3716	-139.996	-11.4268	22.5355	-131.261	-32.5053	26.9799	-132.085	-11.8712	-23.0387	-124.871	-23.0839	-0.0674798	-150.747	-9.50295	17.7331	-145.324	-29.5069	-20.2015	-144.833	-32.5054	10.6208	-165.032	-10.3946	11.4357	-158.447	-39.3105	-13.3586	-160.518	-32.4288	14.9019	-175.216	-10.2526	13.5919	-178.315	-42.5362	-5.78216	-173.493	-29.4629	13.2119	-186.431	-4.55805	13.2979	-194.689	-7.84538	-34.5629	-212.869	7.50792	-25.3276	-183.468	21.291	-30.5581	
102	0.85	-172.228	28.4519	-0.316834	-149.943	11.1907	17.6898	-137.573	-4.96464	23.9977	-126.642	-24.8455	29.8068	-127.725	-8.83617	-22.7423	-122.204	-16.697	2.27273	-144.346	-7.2236	18.3305	-141.124	-30.2093	-19.1825	-134.429	-27.6622	9.64531	-159.609	-7.7049	14.9448	-156.543	-39.713	-12.9171	-151.033	-31.6192	13.9903	-169.345	-12.3993	20.4373	-172.628	-41.3251	-7.30358	-166.375	-28.4636	14.4745	-180.733	-7.34672	17.5213	-193.64	-12.445	-33.5464	-211.138	6.3891	-26.0718	-187.197	16.9403	-32.2051	
103	0.858333	-178.776	26.8884	-2.65848	-155.008	16.0581	14.8547	-136.25	3.40337	24.0933	-122.631	-15.4731	29.8256	-132.151	-5.8693	-26.4846	-122.557	-11.2072	0.103805	-143.736	1.36613	17.876	-139.72	-25.109	-21.8816	-132.043	-24.6017	7.76016	-152.03	-6.92048	18.0808	-151.13	-34.8203	-14.2025	-143.488	-29.7039	11.32	-160.945	-10.7572	25.1051	-167.148	-42.1043	-5.49527	-159.137	-28.4894	14.1807	-170.615	-5.87509	21.2983	-194.077	-14.9108	-31.1075	-214.314	1.0861	-24.6574	-192.005	14.2541	-31.8962	
104	0.866667	-184.634	29.9746	-4.2907	-156.608	18.5048	12.0229	-136.594	9.47862	21.6566	-119.44	-8.06123	27.5079	-134.405	0.0122096	-29.994	-124.003	-4.83176	-2.85725	-145.194	4.61229	16.6677	-141.205	-22.0863	-24.413	-127.77	-20.1221	2.10657	-151.253	-1.55502	18.4545	-148.613	-33.5584	-13.166	-139.562	-26.6263	7.92242	-152.328	-7.75633	26.6649	-167.997	-39.6208	-7.56298	-155.278	-28.2191	12.1941	-163.292	-8.37381	25.2408	-197.387	-17.5797	-31.7024	-223.373	-3.08972	-22.6625	-197.137	16.7603	-30.7989	
105	0.875	-186.288	29.7094	-7.15434	-160.848	24.2875	11.5122	-139.922	13.5508	17.1379	-124.864	5.1488	25.4278	-137.115	8.27177	-31.9016	-124.632	0.916425	-9.11459	-144.763	10.8922	15.7182	-140.435	-12.24	-28.1981	-126.059	-13.8162	-2.5714	-145.4	0.905756	20.4605	-152.795	-27.0059	-18.0178	-138.376	-18.7937	8.36139	-150.537	-3.90183	29.1412	-166.02	-38.6089	-5.8397	-154.222	-27.5329	11.8396	-158.111	-6.33131	21.4225	-197.847	-12.3123	-31.6937	-223.357	-1.36021	-22.7544	-198.779	12.1357	-32.4134	
106	0.883333	-191.267	36.2489	-5.82513	-165.761	32.7458	12.279	-142.364	22.934	16.6435	-122.749	9.62098	22.9687	-138.665	13.6371	-31.7741	-127.096	10.1842	-7.97801	-146.986	12.4065	13.9058	-140.541	-9.40467	-27.8087	-128.404	-7.82027	-3.65655	-145.885	0.760086	23.6305	-153.093	-22.0052	-19.3797	-141.669	-18.0815	5.74902	-150.575	-5.56614	26.587	-162.391	-32.3403	-7.49911	-155.524	-25.0533	12.1	-161.296	-2.66707	26.3875	-198.948	-14.8513	-31.6035	-226.644	-3.28897	-21.3383	-204.902	18.2387	-32.088	
107	0.891667	-199.295	35.383	-5.65252	-167.463	33.2219	8.30981	-148.874	28.8548	13.9441	-126.418	20.671	19.8608	-146.792	22.3874	-34.242	-131.918	16.3408	-9.74059	-151.218	12.9483	12.9733	-144.362	-3.32897	-27.896	-131.202	-0.346764	-2.58177	-142.374	3.24957	22.193	-153.932	-18.7132	-19.2185	-143.304	-15.1316	4.26087	-152.749	1.82629	24.5932	-164.308	-30.041	-10.4264	-156.585	-19.4131	6.63055	-160.96	0.290567	20.8657	-202.779	-14.464	-33.094	-229.205	-4.32787	-21.6071	-210.091	17.9688	-34.9532	
